<svg xmlns="http://www.w3.org/2000/svg" xmlns:xlink="http://www.w3.org/1999/xlink" version="1.1" id="real_logo" x="0px" y="0px" viewBox="0 0 846.1 286.3" style="enable-background:new 0 0 846.1 286.3;" xml:space="preserve">
<style type="text/css">
	.st0{fill:#06C3F9;}
</style>
<title>Logo</title>
<path class="st0" d="M614.8,155.7v27.8c0,30.5-4.3,41-10.9,47.3c-12.7,12.4-32.5,18.4-60.5,18.4c-21.3,0-37.5-3.9-48.1-11.5  s-15.9-19.1-15.9-34.2c0-15.6,5.4-27.8,16.2-35.7s26.7-12.1,47.5-12.1L614.8,155.7z M629.8,22.8C613.5,7.2,588.4,0,550.7,0  c-22.7,0-38.9,2.6-54.2,8.6C480.7,15,466.9,25.9,454.4,42l-1.4,1.8l1.7,1.6l24.5,23.4l2.1,2l1.6-2.4c14.6-20.4,36.4-30.4,66.5-30.4  c22.9,0,39.2,4.7,49.9,14.5c10.4,9.5,15.5,23.7,15.5,43.6v25.6h-75c-31.1,0-53.4,6.7-70.3,21.1c-16.4,14-24,33-24,59.9  c0,24.9,5.9,41.6,19.8,55.9c15.9,16.3,38,24.5,69.4,25.8c5.2,0.4,11.1,0.6,18,0.6c5.6,0,11-0.2,16.1-0.6  c23.8-1.4,50.4-14.1,66.1-31.6c12.2-13.6,17.5-29.2,17.5-50.4V92.8C652.5,59.9,645.3,37.6,629.8,22.8"/>
<polygon class="st0" points="843.6,0 809.7,0 806.6,0 806.6,2.8 806.8,247.6 687.8,246.8 685.5,246.8 685.5,249.4 685.5,283.7   685.5,286.3 687.7,286.3 843.6,286.3 846.1,286.3 846.1,0 "/>
<path class="st0" d="M231.2,128.9v-27.5c0-30.5,4.3-41,10.9-47.3c12.7-12.4,32.5-18.4,60.5-18.4c21.3,0,37.5,3.9,48.1,11.5  s15.9,19,15.9,34.2c0,15.7-5.4,27.6-16.2,35.5s-26.7,11.9-47.5,11.9H231.2z M306.2,162.9c31.1,0,53.5-6.5,70.3-20.9  c16.4-14,24-33,24-59.8c0-24.9-5.9-41.6-19.8-55.8c-15.9-16.3-38-24.4-69.4-25.7c-5.2-0.4-11.1-0.6-18-0.6c-5.6,0-11,0.2-16.1,0.6  c-23.8,1.3-50.4,14-66.1,31.6c-12.2,13.6-17.5,29.2-17.5,50.4v109.5c0,32.9,7.2,55.2,22.7,70c16.3,15.5,41.4,22.8,79,22.8  c22.7,0,38.9-2.6,54.2-8.6c15.8-6.4,29.6-17.3,42.1-33.4l1.4-1.8l-1.7-1.6l-24.5-23.4l-2.1-2l-1.7,2.4  c-14.6,20.4-36.3,30.4-66.4,30.4c-22.9,0-39.2-4.7-49.9-14.5c-10.4-9.5-15.4-23.7-15.4-43.6v-25.9L306.2,162.9z"/>
<polygon class="st0" points="159.7,0 158.4,0 2.5,0 1.8,0 0,0 0,1.9 0,282.9 0,286.3 2.5,286.3 36.4,286.3 39.5,286.3 39.5,282.9   39.3,38.1 158.3,38.8 160.6,38.9 160.6,36.3 160.6,1.9 160.6,0 "/>
</svg>